<svg xmlns="http://www.w3.org/2000/svg" xmlns:xlink="http://www.w3.org/1999/xlink" xmlns:inkscape="http://www.inkscape.org/namespaces/inkscape" version="1.1" width="841.89" height="595.276" viewBox="0 0 841.89 595.276">
<defs>
<path id="font_0_1" d="M.66796877 .22216797C.66796877 .19384766 .6583659 .1796875 .63916018 .1796875H.12695313V.17628479C.12695313 .13223775 .1529948 .103897098 .20507813 .09126282 .21647136 .08867899 .23299153 .08665466 .25463868 .08518982 .2762858 .083735149 .3038737 .08300781 .33740235 .08300781 .36279298 .08300781 .37548829 .06696574 .37548829 .03488159 .37548829 .00902303 .36279298-.00390625 .33740235-.00390625 .30289714-.00390625 .2746582-.0036977132 .25268556-.0032806397 .23071289-.0028635662 .21402996-.0020955404 .20263672-.0009765625 .1459961 .004892985 .10432943 .018254599 .07763672 .039108278 .03955078 .06876119 .020507813 .103627528 .020507813 .14370728V.31625367C.020507813 .37034098 .049804689 .41042076 .10839844 .43649293 .1484375 .45539347 .20149739 .46484376 .26757813 .46484376H.45996095C.5139974 .46484376 .55875656 .45589195 .5942383 .43798829 .6433919 .4152018 .66796877 .38085938 .66796877 .33496095V.22216797M.5673828 .26953126V.3266449C.5673828 .3614858 .4975586 .37890626 .35791017 .37890626 .27555339 .37890626 .21907552 .37600199 .18847656 .37019349 .1451823 .36212669 .123535159 .34631858 .123535159 .32276917V.26953126H.5673828Z"/>
<path id="font_0_2" d="M.1640625 .5283203C.1640625 .51139327 .15690105 .49804688 .14257813 .48828126 .13020833 .47981773 .11507162 .47558595 .09716797 .47558595 .07926432 .47558595 .0641276 .47981773 .051757814 .48828126 .037434896 .49804688 .030273438 .51139327 .030273438 .5283203 .030273438 .5452474 .037434896 .55859377 .051757814 .5683594 .0641276 .57682296 .07926432 .5810547 .09716797 .5810547 .11507162 .5810547 .13020833 .57682296 .14257813 .5683594 .15690105 .55859377 .1640625 .5452474 .1640625 .5283203M.14990235 .034179689C.14990235 .0087890629 .13704427-.00390625 .111328128-.00390625 .08626302-.00390625 .071614589-.0029296876 .06738281-.0009765625 .054036458 .00390625 .04736328 .015625 .04736328 .034179689V.4272461C.04736328 .45263673 .060221357 .46533204 .0859375 .46533204 .110677089 .46533204 .12516277 .46419273 .12939453 .46191407 .1430664 .45703126 .14990235 .44547526 .14990235 .4272461V.034179689Z"/>
<path id="font_0_3" d="M.32958985 .42285157C.32958985 .39095054 .31689454 .375 .2915039 .375H.13427735V.034713746C.13427735 .008967082 .12158203-.00390625 .096191409-.00390625 .07080078-.00390625 .055989583-.0029296876 .051757814-.0009765625 .038085939 .0039164226 .03125 .015655518 .03125 .034240724V.4533844C.03125 .54565939 .10823568 .5917969 .26220704 .5917969 .28857423 .5917969 .30501304 .59016928 .31152345 .58691409 .32356773 .58102419 .32958985 .566452 .32958985 .54319766 .32958985 .5176544 .31689454 .5048828 .2915039 .5048828 .24527996 .5048828 .21516927 .50390627 .20117188 .5019531 .15755208 .4955953 .13574219 .48192344 .13574219 .4609375H.2915039C.31689454 .4609375 .32958985 .4482422 .32958985 .42285157Z"/>
<path id="font_0_4" d="M.14208985 .03466797C.14208985 .008951823 .12939453-.00390625 .104003909-.00390625 .078938808-.00390625 .06429037-.0029296876 .060058595-.0009765625 .0460612 .004231771 .0390625 .015960694 .0390625 .034210206V.55270388C.0390625 .5781148 .051757814 .5908203 .07714844 .5908203 .10091146 .5908203 .115722659 .58984377 .12158203 .5878906 .1352539 .5833333 .14208985 .57161459 .14208985 .5527344V.03466797Z"/>
<path id="font_0_5" d="M.39208985 .41308595C.39208985 .3876953 .37923179 .375 .35351563 .375H.19042969V.034713746C.19042969 .008967082 .17773438-.00390625 .15234375-.00390625 .12727864-.00390625 .11263021-.0029296876 .10839844-.0009765625 .09440104 .0042419435 .087402347 .015991211 .087402347 .03427124V.375C.07373047 .375 .06258138 .37524415 .053955079 .37573243 .045328779 .3762207 .03922526 .37679038 .03564453 .3774414 .01936849 .38297526 .011230469 .39648438 .011230469 .41796876 .011230469 .43945313 .01936849 .45296226 .03564453 .4584961 .03922526 .45914714 .045328779 .4597168 .053955079 .46020509 .06258138 .46069337 .07373047 .4609375 .087402347 .4609375V.5528717C.087402347 .5781708 .100097659 .5908203 .12548828 .5908203 .15055339 .5908203 .16520183 .58984377 .1694336 .5878906 .18343099 .5830078 .19042969 .57145187 .19042969 .55322268V.4609375H.35351563C.37923179 .4609375 .39208985 .44498698 .39208985 .41308595Z"/>
<path id="font_0_6" d="M.3256836 .41629029C.3256836 .39071656 .31038413 .3779297 .27978517 .3779297 .27555339 .3779297 .26944987 .37809245 .2614746 .37841798 .25349937 .3787435 .24739583 .37890626 .24316406 .37890626 .1640625 .37890626 .12451172 .3591868 .12451172 .31974793V.034713746C.12451172 .015813193 .11735026 .0039164226 .103027347-.0009765625 .09716797-.0029296876 .08219401-.00390625 .05810547-.00390625 .033691408-.00390625 .021484375 .009129842 .021484375 .035202028V.31967164C.021484375 .38093058 .052897138 .42248027 .115722659 .44432069 .15413411 .45800273 .21126302 .46484376 .28710938 .46484376 .31282554 .46484376 .3256836 .44865928 .3256836 .41629029Z"/>
<path id="font_0_7" d="M.6894531 .03488159C.6894531 .00902303 .6735026-.00390625 .64160159-.00390625H.2602539C.18701172-.00390625 .13427735 .0030975342 .10205078 .017105103 .04671224 .039271039 .019042969 .07951864 .019042969 .1378479V.32260133C.019042969 .4174296 .092285159 .46484376 .23876953 .46484376H.64697268C.67366537 .46484376 .6870117 .45035807 .6870117 .42138673 .6870117 .39241538 .67366537 .3779297 .64697268 .3779297H.24609375C.16341146 .3779297 .12207031 .3605143 .12207031 .3256836V.14257813C.12207031 .102864589 .16910808 .08300781 .2631836 .08300781H.6508789C.67659506 .08300781 .6894531 .06696574 .6894531 .03488159Z"/>
<path id="font_0_8" d="M.58203127 .032226564C.58203127 .0081380209 .5675456-.00390625 .5385742-.00390625 .51123049-.00390625 .4946289-.0022786458 .48876954 .0009765625L.13671875 .17675781V.03427124C.13671875 .015991211 .12988281 .0042419435 .11621094-.0009765625 .111979167-.0029296876 .09749349-.00390625 .072753909-.00390625 .04736328-.00390625 .03466797 .008951823 .03466797 .03466797V.5527344C.03466797 .578125 .04736328 .5908203 .072753909 .5908203 .09651693 .5908203 .11116537 .58984377 .11669922 .5878906 .13004558 .5833333 .13671875 .57161459 .13671875 .5527344V.28271485H.13720703L.484375 .45654298C.49316407 .45914714 .50878909 .46044923 .53125 .46044923 .5602214 .46044923 .57470706 .44856773 .57470706 .4248047 .57470706 .4091797 .56591799 .39697267 .54833987 .3881836L.23291016 .23095703 .55566409 .06933594C.5732422 .060546876 .58203127 .048177083 .58203127 .032226564Z"/>
</defs>
<path transform="matrix(1,0,0,-1,0,595.276)" d="M123.24 595.276H718.44V.076H123.24Z" fill="#ffffff"/>
<path transform="matrix(1,0,0,-1,0,595.276)" d="M123.24 595.276H718.44V244.516H123.24Z" fill="#595959"/>
<path transform="matrix(1,0,0,-1,0,595.276)" d="M197.76 253.876C197.76 285.796 223.68 311.596 255.6 311.596 287.52 311.596 313.44 285.796 313.44 253.876 313.44 221.836 287.52 196.036 255.6 196.036 223.68 196.036 197.76 221.836 197.76 253.876ZM227.04 253.876C227.04 238.036 239.76 225.196 255.6 225.196 271.44 225.196 284.28 238.036 284.28 253.876 284.28 269.596 271.44 282.436 255.6 282.436 239.76 282.436 227.04 269.596 227.04 253.876Z" fill="#ffc000" fill-rule="evenodd"/>
<path transform="matrix(1,0,0,-1,0,595.276)" d="M209.88 300.556C219.48 309.676 233.52 318.436 253.32 319.396L250.8 366.676C250.2 378.916 260.88 385.396 272.04 385.396L378.84 385.156V442.876L222.72 442.996C193.68 442.996 184.56 419.596 189.84 397.156L209.88 300.556Z" fill="#ffc000" fill-rule="evenodd"/>
<path transform="matrix(1,0,0,-1,0,595.276)" d="M453.24 377.716C497.4 427.756 573.72 432.556 623.64 388.396 633.84 379.516 642.36 368.956 648.96 357.196L639.36 351.676C609.6 404.476 542.76 423.076 489.96 393.316 479.28 387.316 469.68 379.516 461.64 370.396Z" fill="#ffc000" fill-rule="evenodd"/>
<path transform="matrix(1,0,0,-1,0,595.276)" d="M586.44 450.196 500.52 430.636C504.96 423.076 501.6 428.956 506.04 421.276 527.52 427.276 554.52 428.836 579 421.876 593.76 429.916 590.04 443.596 586.44 450.196Z" fill="#ffc000" fill-rule="evenodd"/>
<path transform="matrix(1,0,0,-1,0,595.276)" d="M410.64 460.876 417.84 468.076 465.96 419.956 458.76 412.756Z" fill="#ffc000" fill-rule="evenodd"/>
<path transform="matrix(1,0,0,-1,0,595.276)" d="M348.48 335.716V335.716H441.24C436.56 323.116 435.84 317.716 434.64 306.556L348.48 306.676V335.716Z" fill="#ffc000" fill-rule="evenodd"/>
<path transform="matrix(1,0,0,-1,0,595.276)" d="M275.28 370.276C275.28 374.596 278.88 378.196 283.2 378.196H342.24C346.56 378.196 350.16 374.596 350.16 370.276V357.196C350.16 352.756 346.56 349.276 342.24 349.276H283.2C278.88 349.276 275.28 352.756 275.28 357.196Z" fill="#ffc000" fill-rule="evenodd"/>
<path transform="matrix(1,0,0,-1,0,595.276)" d="M330.6 354.676H340.8V306.676H330.6Z" fill="#ffc000"/>
<path transform="matrix(1,0,0,-1,0,595.276)" d="M263.04 332.116C263.04 337.876 267.72 342.556 273.48 342.556H311.76C317.52 342.556 322.2 337.876 322.2 332.116V302.116C322.2 296.236 317.52 291.556 311.76 291.556 305.88 291.916 313.56 291.436 309 291.676 301.8 301.276 288.36 315.916 262.8 319.036 262.8 323.716 262.92 327.436 263.04 332.116Z" fill="#ffc000" fill-rule="evenodd"/>
<path transform="matrix(1,0,0,-1,0,595.276)" d="M441.72 297.916C441.72 354.316 487.44 399.916 543.72 399.916 600.12 399.916 645.84 354.316 645.84 297.916 645.84 241.636 600.12 195.916 543.72 195.916 487.44 195.916 441.72 241.636 441.72 297.916ZM492.6 297.916C492.6 269.716 515.52 246.796 543.72 246.796 572.04 246.796 594.84 269.716 594.84 297.916 594.84 326.116 572.04 349.036 543.72 349.036 515.52 349.036 492.6 326.116 492.6 297.916Z" fill="#ffc000" fill-rule="evenodd"/>
<path transform="matrix(1,0,0,-1,0,595.276)" d="M386.52 442.756H413.76L441 415.636V342.436H386.52Z" fill="#ffc000" fill-rule="evenodd"/>
<path transform="matrix(1,0,0,-1,0,595.276)" d="M222.48 370.276 222.6 341.236C228.36 341.356 241.56 340.876 241.8 355.756 241.68 369.316 228.48 370.276 222.48 370.276Z" fill="#595959" fill-rule="evenodd"/>
<path transform="matrix(1,0,0,-1,0,595.276)" d="M619.68 386.476H653.64C653.64 382.516 653.64 378.556 653.76 374.596L639.48 365.116 619.68 386.476Z" fill="#ffc000" fill-rule="evenodd"/>
<path transform="matrix(1,0,0,-1,0,595.276)" d="M123.24 252.676H718.44V.076H123.24Z" fill="#404040"/>
<use data-text="e" xlink:href="#font_0_1" transform="matrix(76.8,0,0,-76.8,187.5456,438.604)" fill="#99ff33"/>
<use data-text="i" xlink:href="#font_0_2" transform="matrix(76.8,0,0,-76.8,242.0256,438.604)" fill="#99ff33"/>
<use data-text="f" xlink:href="#font_0_3" transform="matrix(76.8,0,0,-76.8,258.46565,438.604)" fill="#99ff33"/>
<use data-text="e" xlink:href="#font_0_1" transform="matrix(76.8,0,0,-76.8,285.34565,438.604)" fill="#99ff33"/>
<use data-text="l" xlink:href="#font_0_4" transform="matrix(76.8,0,0,-76.8,339.82566,438.604)" fill="#99ff33"/>
<use data-text="t" xlink:href="#font_0_5" transform="matrix(76.8,0,0,-76.8,355.30564,438.604)" fill="#99ff33"/>
<use data-text="r" xlink:href="#font_0_6" transform="matrix(76.8,0,0,-76.8,387.82566,438.604)" fill="#99ff33"/>
<use data-text="e" xlink:href="#font_0_1" transform="matrix(76.8,0,0,-76.8,414.70567,438.604)" fill="#99ff33"/>
<use data-text="c" xlink:href="#font_0_7" transform="matrix(76.8,0,0,-76.8,469.18568,438.604)" fill="#99ff33"/>
<use data-text="k" xlink:href="#font_0_8" transform="matrix(76.8,0,0,-76.8,525.10568,438.604)" fill="#99ff33"/>
<use data-text="e" xlink:href="#font_0_1" transform="matrix(76.8,0,0,-76.8,571.5456,438.604)" fill="#99ff33"/>
<use data-text="r" xlink:href="#font_0_6" transform="matrix(76.8,0,0,-76.8,626.0256,438.604)" fill="#99ff33"/>
</svg>
