<svg xmlns="http://www.w3.org/2000/svg" xmlns:xlink="http://www.w3.org/1999/xlink" width="1800" zoomAndPan="magnify" viewBox="0 0 1350 1349.999938" height="1800" preserveAspectRatio="xMidYMid meet" version="1.0"><defs><clipPath id="c7adc7590d"><path d="M 29 498.273438 L 301 498.273438 L 301 817 L 29 817 Z M 29 498.273438 " clip-rule="nonzero"/></clipPath><clipPath id="9063135a7f"><path d="M 1 516 L 400 516 L 400 851.523438 L 1 851.523438 Z M 1 516 " clip-rule="nonzero"/></clipPath></defs><rect x="-135" width="1620" fill="#ffffff" y="-134.999994" height="1619.999926" fill-opacity="1"/><rect x="-135" width="1620" fill="#ffffff" y="-134.999994" height="1619.999926" fill-opacity="1"/><path fill="#b40f1d" d="M 872.984375 519.171875 L 886.007812 519.171875 L 886.007812 552.238281 L 872.984375 552.238281 Z M 872.984375 519.171875 " fill-opacity="1" fill-rule="nonzero"/><path fill="#b40f1d" d="M 901.0625 518.925781 L 914.078125 518.925781 L 914.078125 551.992188 L 901.0625 551.992188 Z M 901.0625 518.925781 " fill-opacity="1" fill-rule="nonzero"/><path fill="#4b4a4a" d="M 620.378906 533.449219 C 608.277344 533.449219 597.375 533.847656 587.457031 534.246094 L 587.457031 668.035156 L 605.699219 668.035156 L 605.699219 616.902344 C 609.261719 617.222656 612.832031 617.355469 616.410156 617.292969 C 646.75 617.292969 668.164062 598.859375 668.164062 572.699219 C 668.164062 548.910156 651.113281 533.476562 620.371094 533.476562 M 616.609375 602.257812 C 612.949219 602.304688 609.3125 602.039062 605.699219 601.46875 L 605.699219 548.710938 C 609.460938 548.511719 613.4375 548.511719 618.410156 548.511719 C 639.414062 548.511719 649.152344 557.832031 649.152344 574.476562 C 649.136719 591.332031 636.445312 602.019531 616.613281 602.230469 Z M 479.96875 568.324219 C 479.96875 555.839844 489.488281 547.515625 507.734375 547.515625 C 515.960938 547.617188 524.023438 548.804688 531.925781 551.078125 L 532.921875 534.824219 C 524.933594 533.238281 516.867188 532.445312 508.722656 532.449219 C 478.578125 532.449219 461.125 548.308594 461.125 570.3125 C 461.125 612.921875 521.421875 601.03125 521.421875 631.160156 C 521.421875 647.613281 508.15625 654.148438 492.066406 654.148438 C 482.609375 653.988281 473.417969 652.332031 464.5 649.179688 L 463.507812 666.617188 C 472.367188 668.777344 481.359375 669.835938 490.480469 669.792969 C 521.613281 669.792969 540.460938 652.546875 540.460938 628.5625 C 540.460938 586.765625 479.96875 597.28125 479.96875 568.324219 Z M 1290.503906 652.382812 L 1290.503906 534.246094 L 1272.265625 534.246094 L 1272.265625 668.035156 L 1338.507812 668.035156 L 1338.507812 652.382812 Z M 749.292969 605.980469 C 772.6875 604.394531 790.144531 591.113281 790.144531 568.316406 C 790.144531 542.753906 771.101562 533.433594 744.722656 533.433594 C 730.054688 533.433594 720.335938 533.632812 711.214844 534.230469 L 711.214844 668.019531 L 729.457031 668.019531 L 729.457031 607.980469 L 730.253906 607.980469 L 775.664062 668.035156 L 798.878906 668.035156 L 760.988281 620.25 C 757.421875 615.914062 753.25 610.757812 749.292969 605.996094 Z M 729.457031 594.285156 L 729.457031 548.710938 C 733.027344 548.511719 736.988281 548.320312 741.550781 548.320312 C 760.988281 548.320312 771.101562 554.65625 771.101562 570.710938 C 771.101562 584.988281 760 594.699219 740.757812 594.699219 C 735.402344 594.699219 731.445312 594.5 729.457031 594.285156 Z M 1100.328125 599.808594 L 1082.273438 599.808594 L 1082.273438 599.875 L 1056.851562 599.875 L 1056.851562 614.855469 L 1082.273438 614.855469 L 1082.273438 650.355469 C 1074.59375 652.753906 1066.726562 653.945312 1058.679688 653.929688 C 1028.523438 653.929688 1009.097656 634.894531 1009.097656 601.59375 C 1009.097656 565.917969 1032.695312 548.078125 1060.265625 548.078125 C 1066.390625 548.101562 1072.453125 548.714844 1078.457031 549.917969 C 1084.460938 551.117188 1090.292969 552.882812 1095.953125 555.214844 L 1098.71875 538.171875 C 1086.789062 534.34375 1074.558594 532.425781 1062.027344 532.421875 C 1017.003906 532.421875 989.625 562.75 989.625 603.78125 C 989.625 645.210938 1015.601562 669.78125 1056.058594 669.78125 C 1071.242188 669.742188 1085.980469 667.164062 1100.277344 662.050781 L 1100.277344 614.894531 L 1100.394531 614.894531 L 1100.394531 599.914062 L 1100.277344 599.914062 Z M 1153.070312 668 L 1221.894531 668 L 1221.894531 652.773438 L 1171.324219 652.773438 L 1171.324219 606.371094 L 1219.515625 606.371094 L 1219.515625 591.722656 L 1171.324219 591.722656 L 1171.324219 549.308594 L 1221.894531 549.308594 L 1221.894531 534.246094 L 1153.066406 534.246094 Z M 926.398438 618.25 C 926.398438 645.207031 915.488281 654.917969 892.085938 654.917969 C 865.113281 654.917969 858.96875 640.050781 858.96875 621.613281 L 858.96875 534.246094 L 840.726562 534.246094 L 840.726562 623.042969 C 840.726562 646.832031 849.058594 669.996094 890.910156 669.996094 C 925.808594 669.996094 944.261719 651.960938 944.261719 616.878906 L 944.261719 534.246094 L 926.410156 534.246094 Z M 926.398438 618.25 " fill-opacity="1" fill-rule="nonzero"/><path fill="#4b4a4a" d="M 539.738281 808.859375 L 531.242188 808.859375 L 512.914062 744.695312 L 512.710938 744.695312 L 494.09375 808.859375 L 485.5 808.859375 L 464.789062 736.621094 L 472.140625 736.621094 L 489.949219 800.785156 L 490.160156 800.785156 L 508.691406 736.621094 L 517.285156 736.621094 L 535.527344 800.785156 L 535.730469 800.785156 L 553.855469 736.621094 L 560.683594 736.621094 Z M 539.738281 808.859375 " fill-opacity="1" fill-rule="nonzero"/><path fill="#4b4a4a" d="M 643.074219 735.378906 C 664.820312 735.378906 675.074219 753.179688 674.863281 772.738281 C 674.65625 794.890625 663.886719 810.105469 643.074219 810.105469 C 622.257812 810.105469 611.496094 794.890625 611.285156 772.738281 C 611.082031 753.179688 621.328125 735.378906 643.074219 735.378906 M 618.453125 772.710938 C 618.453125 788.03125 626.117188 803.863281 643.09375 803.863281 C 660.074219 803.863281 667.746094 788.03125 667.746094 772.710938 C 667.746094 757.394531 660.078125 741.5625 643.09375 741.5625 C 626.109375 741.5625 618.453125 757.425781 618.453125 772.710938 Z M 618.453125 772.710938 " fill-opacity="1" fill-rule="nonzero"/><path fill="#4b4a4a" d="M 733.679688 736.625 L 752.316406 736.625 C 765.15625 736.625 773.539062 742.109375 773.539062 755.355469 C 773.519531 756.417969 773.402344 757.46875 773.183594 758.507812 C 772.964844 759.546875 772.65625 760.554688 772.25 761.535156 C 771.839844 762.515625 771.347656 763.453125 770.765625 764.339844 C 770.183594 765.230469 769.527344 766.054688 768.789062 766.820312 C 768.054688 767.585938 767.253906 768.277344 766.386719 768.894531 C 765.519531 769.507812 764.605469 770.039062 763.640625 770.484375 C 762.675781 770.925781 761.679688 771.277344 760.648438 771.535156 C 759.617188 771.792969 758.574219 771.953125 757.511719 772.015625 L 757.511719 772.226562 C 763.308594 772.949219 764.554688 776.054688 766.832031 780.914062 L 779.152344 808.859375 L 771.28125 808.859375 L 760.824219 784.433594 C 756.683594 775.121094 753.578125 774.8125 746.738281 774.8125 L 740.835938 774.8125 L 740.835938 808.859375 L 733.695312 808.859375 Z M 740.820312 768.601562 L 748.382812 768.601562 C 756.765625 768.601562 766.398438 765.390625 766.398438 755.34375 C 766.398438 743.542969 758.007812 742.820312 748.160156 742.820312 L 740.804688 742.820312 Z M 740.820312 768.601562 " fill-opacity="1" fill-rule="nonzero"/><path fill="#4b4a4a" d="M 836.085938 736.625 L 843.230469 736.625 L 843.230469 769.015625 L 875.75 736.625 L 885.066406 736.625 L 850.042969 770.671875 L 888.046875 808.859375 L 878.230469 808.859375 L 843.230469 772.738281 L 843.230469 808.859375 L 836.085938 808.859375 Z M 836.085938 736.625 " fill-opacity="1" fill-rule="nonzero"/><path fill="#4b4a4a" d="M 1009.527344 808.859375 L 1001.039062 808.859375 L 982.691406 744.695312 L 982.484375 744.695312 L 963.84375 808.859375 L 955.25 808.859375 L 934.539062 736.621094 L 941.890625 736.621094 L 959.699219 800.785156 L 959.902344 800.785156 L 978.441406 736.621094 L 987.035156 736.621094 L 1005.277344 800.785156 L 1005.480469 800.785156 L 1023.59375 736.625 L 1030.425781 736.625 Z M 1009.527344 808.859375 " fill-opacity="1" fill-rule="nonzero"/><path fill="#4b4a4a" d="M 1084.390625 736.625 L 1119.804688 736.625 L 1119.804688 742.832031 L 1091.535156 742.832031 L 1091.535156 768.601562 L 1118.351562 768.601562 L 1118.351562 774.8125 L 1091.535156 774.8125 L 1091.535156 802.652344 L 1121.042969 802.652344 L 1121.042969 808.859375 L 1084.390625 808.859375 Z M 1084.390625 736.625 " fill-opacity="1" fill-rule="nonzero"/><path fill="#4b4a4a" d="M 1202.335938 736.625 L 1210.410156 736.625 L 1239.089844 808.859375 L 1231.636719 808.859375 L 1223.898438 789.527344 L 1187.449219 789.527344 L 1179.714844 808.859375 L 1172.714844 808.859375 Z M 1205.851562 743.449219 L 1190.113281 783.296875 L 1221.464844 783.296875 Z M 1205.851562 743.449219 " fill-opacity="1" fill-rule="nonzero"/><path fill="#4b4a4a" d="M 1293.660156 736.625 L 1312.296875 736.625 C 1325.144531 736.625 1333.527344 742.109375 1333.527344 755.355469 C 1333.507812 756.417969 1333.386719 757.464844 1333.171875 758.507812 C 1332.953125 759.546875 1332.640625 760.554688 1332.234375 761.535156 C 1331.828125 762.515625 1331.332031 763.453125 1330.753906 764.339844 C 1330.171875 765.226562 1329.511719 766.054688 1328.777344 766.820312 C 1328.039062 767.585938 1327.238281 768.277344 1326.375 768.890625 C 1325.507812 769.507812 1324.59375 770.035156 1323.628906 770.480469 C 1322.664062 770.925781 1321.664062 771.277344 1320.636719 771.535156 C 1319.605469 771.792969 1318.558594 771.953125 1317.5 772.015625 L 1317.5 772.226562 C 1323.296875 772.949219 1324.539062 776.054688 1326.816406 780.914062 L 1339.136719 808.859375 L 1331.273438 808.859375 L 1320.816406 784.433594 C 1316.671875 775.121094 1313.5625 774.8125 1306.730469 774.8125 L 1300.828125 774.8125 L 1300.828125 808.859375 L 1293.683594 808.859375 Z M 1300.808594 768.601562 L 1308.367188 768.601562 C 1316.753906 768.601562 1326.382812 765.390625 1326.382812 755.34375 C 1326.382812 743.542969 1317.996094 742.820312 1308.140625 742.820312 L 1300.789062 742.820312 Z M 1300.808594 768.601562 " fill-opacity="1" fill-rule="nonzero"/><path stroke-linecap="butt" transform="matrix(5.527134, 0, 0, 5.524019, 454.586151, 702.429422)" fill="none" stroke-linejoin="miter" d="M -0.0000386605 0.0000479773 L 161.760863 0.0000479773 " stroke="#b40f1d" stroke-width="2.451" stroke-opacity="1" stroke-miterlimit="10"/><g clip-path="url(#c7adc7590d)"><path fill="#b40f1d" d="M 102.492188 816.191406 C 110.941406 814.964844 119.652344 813.390625 128.511719 811.472656 C 126.269531 810.226562 124.0625 808.929688 121.882812 807.574219 C 119.703125 806.222656 117.558594 804.816406 115.449219 803.359375 C 113.339844 801.902344 111.265625 800.390625 109.230469 798.832031 C 107.195312 797.273438 105.195312 795.667969 103.238281 794.011719 C 101.28125 792.355469 99.363281 790.652344 97.488281 788.902344 C 95.617188 787.152344 93.785156 785.355469 91.996094 783.515625 C 90.210938 781.679688 88.46875 779.796875 86.773438 777.871094 C 85.078125 775.949219 83.433594 773.984375 81.832031 771.980469 C 80.234375 769.976562 78.683594 767.933594 77.183594 765.851562 C 75.683594 763.773438 74.238281 761.65625 72.839844 759.507812 C 71.445312 757.355469 70.101562 755.171875 68.8125 752.957031 C 67.523438 750.742188 66.285156 748.496094 65.105469 746.21875 C 63.925781 743.941406 62.804688 741.636719 61.734375 739.308594 C 60.667969 736.976562 59.65625 734.621094 58.707031 732.242188 C 57.753906 729.859375 56.859375 727.457031 56.023438 725.035156 C 55.1875 722.609375 54.414062 720.167969 53.695312 717.707031 C 52.980469 715.242188 52.324219 712.765625 51.730469 710.273438 C 51.136719 707.777344 50.601562 705.269531 50.128906 702.75 C 49.65625 700.230469 49.246094 697.703125 48.898438 695.164062 C 48.546875 692.621094 48.261719 690.074219 48.035156 687.523438 C 47.8125 684.96875 47.648438 682.410156 47.550781 679.847656 C 47.449219 677.285156 47.414062 674.722656 47.4375 672.160156 C 47.460938 669.597656 47.550781 667.035156 47.699219 664.476562 C 47.851562 661.917969 48.0625 659.363281 48.339844 656.8125 C 48.613281 654.265625 48.949219 651.722656 49.351562 649.191406 C 49.75 646.660156 50.210938 644.136719 50.730469 641.628906 C 51.253906 639.117188 51.835938 636.621094 52.480469 634.140625 C 53.125 631.660156 53.828125 629.195312 54.59375 626.746094 C 55.359375 624.300781 56.183594 621.875 57.066406 619.464844 C 57.949219 617.058594 58.890625 614.675781 59.886719 612.3125 C 60.886719 609.953125 61.945312 607.617188 63.058594 605.308594 C 64.171875 603 65.339844 600.71875 66.5625 598.464844 C 67.789062 596.210938 69.066406 593.992188 70.402344 591.800781 C 71.734375 589.609375 73.121094 587.453125 74.558594 585.332031 C 75.996094 583.207031 77.484375 581.121094 79.027344 579.070312 C 80.566406 577.023438 82.15625 575.011719 83.792969 573.039062 C 85.433594 571.066406 87.117188 569.132812 88.851562 567.246094 C 90.582031 565.355469 92.363281 563.507812 94.183594 561.703125 C 96.007812 559.898438 97.875 558.140625 99.78125 556.429688 C 101.691406 554.714844 103.640625 553.050781 105.628906 551.433594 C 107.621094 549.816406 109.648438 548.25 111.714844 546.730469 C 113.78125 545.210938 115.886719 543.742188 118.023438 542.328125 C 120.160156 540.910156 122.332031 539.546875 124.539062 538.238281 C 126.742188 536.929688 128.976562 535.671875 131.246094 534.472656 C 133.511719 533.269531 135.804688 532.125 138.125 531.035156 C 140.449219 529.945312 142.796875 528.914062 145.167969 527.941406 C 147.542969 526.964844 149.9375 526.050781 152.351562 525.191406 C 154.769531 524.332031 157.207031 523.535156 159.664062 522.796875 C 162.121094 522.054688 164.59375 521.378906 167.082031 520.757812 C 169.570312 520.140625 172.074219 519.582031 174.589844 519.085938 C 177.105469 518.589844 179.632812 518.15625 182.171875 517.78125 C 184.710938 517.410156 187.253906 517.097656 189.808594 516.847656 C 192.359375 516.597656 194.917969 516.414062 197.480469 516.289062 C 200.042969 516.164062 202.605469 516.101562 205.171875 516.101562 C 207.738281 516.101562 210.300781 516.167969 212.863281 516.292969 C 215.425781 516.417969 217.980469 516.605469 220.535156 516.855469 C 223.085938 517.105469 225.632812 517.417969 228.171875 517.792969 C 230.707031 518.167969 233.234375 518.605469 235.75 519.101562 C 238.265625 519.601562 240.769531 520.160156 243.257812 520.777344 C 245.75 521.398438 248.21875 522.078125 250.675781 522.820312 C 253.132812 523.558594 255.566406 524.359375 257.984375 525.21875 C 260.402344 526.078125 262.796875 526.996094 265.167969 527.972656 C 267.539062 528.949219 269.886719 529.980469 272.207031 531.070312 C 274.53125 532.160156 276.824219 533.308594 279.089844 534.511719 C 286.699219 531.6875 294.011719 528.984375 300.894531 526.390625 C 298.519531 524.855469 296.109375 523.378906 293.660156 521.960938 C 291.214844 520.542969 288.734375 519.1875 286.222656 517.890625 C 283.710938 516.589844 281.171875 515.355469 278.597656 514.179688 C 276.027344 513.003906 273.429688 511.890625 270.804688 510.839844 C 268.179688 509.789062 265.527344 508.804688 262.855469 507.882812 C 260.183594 506.960938 257.488281 506.101562 254.773438 505.308594 C 252.058594 504.515625 249.328125 503.789062 246.578125 503.128906 C 243.828125 502.46875 241.066406 501.875 238.289062 501.347656 C 235.507812 500.820312 232.71875 500.363281 229.917969 499.96875 C 227.121094 499.578125 224.3125 499.253906 221.496094 498.996094 C 218.679688 498.738281 215.859375 498.550781 213.03125 498.429688 C 210.207031 498.308594 207.382812 498.253906 204.554688 498.269531 C 201.726562 498.285156 198.898438 498.367188 196.078125 498.519531 C 193.253906 498.671875 190.433594 498.890625 187.621094 499.179688 C 184.808594 499.46875 182.003906 499.824219 179.207031 500.246094 C 176.410156 500.667969 173.628906 501.160156 170.855469 501.714844 C 168.082031 502.273438 165.324219 502.898438 162.582031 503.585938 C 159.839844 504.277344 157.117188 505.035156 154.414062 505.855469 C 151.707031 506.675781 149.023438 507.5625 146.359375 508.515625 C 143.695312 509.464844 141.058594 510.480469 138.445312 511.558594 C 135.832031 512.640625 133.246094 513.78125 130.6875 514.984375 C 128.128906 516.1875 125.597656 517.449219 123.101562 518.777344 C 120.605469 520.101562 118.140625 521.488281 115.710938 522.929688 C 113.277344 524.375 110.882812 525.875 108.527344 527.4375 C 106.167969 528.996094 103.847656 530.613281 101.570312 532.285156 C 99.289062 533.957031 97.050781 535.679688 94.855469 537.460938 C 92.65625 539.242188 90.503906 541.070312 88.394531 542.957031 C 86.289062 544.839844 84.226562 546.773438 82.210938 548.753906 C 80.195312 550.738281 78.230469 552.769531 76.3125 554.847656 C 74.398438 556.925781 72.53125 559.046875 70.71875 561.214844 C 68.902344 563.382812 67.140625 565.59375 65.433594 567.847656 C 63.726562 570.097656 62.074219 572.390625 60.476562 574.722656 C 58.882812 577.054688 57.339844 579.425781 55.859375 581.832031 C 54.375 584.238281 52.953125 586.679688 51.589844 589.15625 C 50.226562 591.632812 48.921875 594.136719 47.675781 596.675781 C 46.433594 599.214844 45.253906 601.78125 44.132812 604.378906 C 43.015625 606.972656 41.957031 609.59375 40.964844 612.238281 C 39.972656 614.886719 39.042969 617.554688 38.179688 620.246094 C 37.316406 622.9375 36.519531 625.648438 35.785156 628.378906 C 35.050781 631.105469 34.386719 633.851562 33.785156 636.613281 C 33.183594 639.375 32.652344 642.152344 32.1875 644.9375 C 31.71875 647.726562 31.320312 650.523438 30.988281 653.328125 C 30.660156 656.136719 30.394531 658.949219 30.199219 661.769531 C 30.003906 664.589844 29.878906 667.410156 29.820312 670.238281 C 29.761719 673.0625 29.769531 675.886719 29.847656 678.710938 C 29.925781 681.539062 30.070312 684.359375 30.285156 687.175781 C 30.496094 689.996094 30.777344 692.808594 31.128906 695.613281 C 31.476562 698.414062 31.894531 701.210938 32.378906 703.996094 C 32.863281 706.777344 33.417969 709.550781 34.035156 712.308594 C 34.652344 715.066406 35.335938 717.808594 36.089844 720.53125 C 36.839844 723.257812 37.65625 725.960938 38.535156 728.648438 C 39.417969 731.332031 40.363281 733.996094 41.375 736.632812 C 42.382812 739.273438 43.457031 741.886719 44.59375 744.476562 C 45.730469 747.0625 46.929688 749.625 48.1875 752.152344 C 49.449219 754.683594 50.769531 757.183594 52.148438 759.648438 C 53.53125 762.113281 54.96875 764.546875 56.46875 766.945312 C 57.964844 769.339844 59.519531 771.699219 61.132812 774.023438 C 62.746094 776.34375 64.414062 778.625 66.136719 780.867188 C 67.855469 783.109375 69.632812 785.308594 71.460938 787.464844 C 73.289062 789.617188 75.167969 791.730469 77.097656 793.792969 C 79.03125 795.859375 81.007812 797.878906 83.035156 799.847656 C 85.066406 801.816406 87.140625 803.738281 89.257812 805.605469 C 91.378906 807.476562 93.542969 809.292969 95.753906 811.058594 C 97.960938 812.824219 100.210938 814.535156 102.503906 816.191406 " fill-opacity="1" fill-rule="nonzero"/></g><path fill="#b40f1d" d="M 320.226562 565.796875 C 322.589844 568.296875 324.867188 570.867188 327.0625 573.511719 C 329.257812 576.160156 331.363281 578.875 333.378906 581.65625 C 335.394531 584.441406 337.320312 587.289062 339.148438 590.195312 C 340.980469 593.105469 342.710938 596.070312 344.347656 599.09375 C 345.984375 602.117188 347.519531 605.191406 348.953125 608.3125 C 350.386719 611.4375 351.71875 614.605469 352.945312 617.8125 C 354.175781 621.023438 355.296875 624.269531 356.308594 627.554688 C 357.324219 630.839844 358.230469 634.152344 359.03125 637.492188 C 359.828125 640.835938 360.515625 644.203125 361.09375 647.589844 C 361.671875 650.976562 362.136719 654.378906 362.492188 657.800781 C 362.847656 661.21875 363.089844 664.644531 363.21875 668.078125 C 363.347656 671.511719 363.367188 674.945312 363.273438 678.382812 C 363.179688 681.816406 362.972656 685.246094 362.652344 688.667969 C 362.335938 692.089844 361.902344 695.496094 361.363281 698.890625 C 360.820312 702.285156 360.167969 705.65625 359.40625 709.007812 C 358.640625 712.359375 357.769531 715.679688 356.789062 718.976562 C 355.808594 722.269531 354.722656 725.527344 353.527344 728.75 C 352.335938 731.972656 351.035156 735.152344 349.636719 738.292969 C 348.234375 741.429688 346.730469 744.519531 345.125 747.558594 C 343.523438 750.597656 341.820312 753.582031 340.019531 756.511719 C 338.21875 759.4375 336.328125 762.304688 334.339844 765.109375 C 332.351562 767.914062 330.277344 770.652344 328.109375 773.320312 C 325.941406 775.988281 323.691406 778.585938 321.355469 781.105469 C 319.019531 783.628906 316.601562 786.070312 314.105469 788.433594 C 311.609375 790.796875 309.039062 793.078125 306.394531 795.273438 C 303.75 797.46875 301.035156 799.574219 298.25 801.589844 C 295.46875 803.609375 292.621094 805.535156 289.710938 807.367188 C 286.800781 809.199219 283.835938 810.933594 280.8125 812.570312 C 277.789062 814.207031 274.714844 815.746094 271.59375 817.183594 C 268.46875 818.617188 265.300781 819.953125 262.089844 821.179688 C 258.878906 822.410156 255.632812 823.535156 252.347656 824.550781 C 249.0625 825.570312 245.75 826.476562 242.40625 827.277344 L 242.128906 827.386719 L 242.128906 827.347656 C 239.328125 828.53125 233.839844 830.546875 225.75 833.359375 C 215.394531 836.972656 198.988281 842.402344 179.714844 847.753906 C 184.128906 848.414062 188.5625 848.90625 193.011719 849.226562 C 197.464844 849.550781 201.921875 849.703125 206.382812 849.6875 C 210.847656 849.667969 215.300781 849.484375 219.75 849.125 C 224.199219 848.769531 228.628906 848.246094 233.035156 847.550781 C 237.445312 846.859375 241.820312 845.996094 246.164062 844.96875 C 250.507812 843.945312 254.804688 842.753906 259.054688 841.398438 C 263.308594 840.046875 267.503906 838.53125 271.640625 836.859375 C 275.777344 835.183594 279.84375 833.355469 283.839844 831.375 C 287.839844 829.390625 291.753906 827.257812 295.589844 824.976562 C 299.425781 822.695312 303.167969 820.269531 306.816406 817.703125 C 310.464844 815.136719 314.015625 812.4375 317.457031 809.601562 C 320.902344 806.765625 324.234375 803.800781 327.453125 800.710938 C 330.667969 797.621094 333.765625 794.414062 336.738281 791.085938 C 339.710938 787.761719 342.554688 784.328125 345.265625 780.785156 C 347.980469 777.242188 350.550781 773.601562 352.988281 769.863281 C 355.421875 766.125 357.710938 762.300781 359.851562 758.386719 C 361.996094 754.472656 363.984375 750.484375 365.824219 746.421875 C 367.664062 742.359375 369.34375 738.230469 370.867188 734.039062 C 372.390625 729.84375 373.753906 725.601562 374.953125 721.304688 C 376.15625 717.007812 377.191406 712.675781 378.058594 708.300781 C 378.929688 703.925781 379.632812 699.523438 380.164062 695.09375 C 380.699219 690.667969 381.066406 686.226562 381.261719 681.769531 C 381.457031 677.3125 381.484375 672.855469 381.339844 668.398438 C 381.195312 663.941406 380.878906 659.492188 380.398438 655.058594 C 379.914062 650.625 379.261719 646.214844 378.445312 641.832031 C 377.625 637.449219 376.640625 633.101562 375.488281 628.792969 C 374.339844 624.480469 373.027344 620.222656 371.550781 616.011719 C 370.074219 611.804688 368.441406 607.65625 366.652344 603.570312 C 364.859375 599.484375 362.914062 595.472656 360.816406 591.539062 C 358.722656 587.601562 356.476562 583.75 354.085938 579.984375 C 351.695312 576.214844 349.164062 572.546875 346.492188 568.972656 C 343.824219 565.398438 341.019531 561.933594 338.085938 558.574219 C 332.328125 560.929688 326.390625 563.335938 320.265625 565.792969 " fill-opacity="1" fill-rule="nonzero"/><g clip-path="url(#9063135a7f)"><path fill="#4b4a4a" d="M 399.683594 517.429688 C 396.5 517.269531 393.019531 517.109375 389.53125 516.953125 C 379.34375 516.519531 369.175781 516.152344 366.445312 516.058594 C 357.472656 519.5 261.75 556.175781 175.34375 586.445312 C 130.425781 602.175781 104.78125 617.347656 90.585938 630.015625 C 76.390625 642.679688 73.632812 652.664062 73.613281 658.628906 C 73.535156 659.558594 73.523438 660.488281 73.574219 661.417969 C 73.628906 662.351562 73.75 663.273438 73.933594 664.1875 C 74.117188 665.101562 74.363281 666 74.675781 666.878906 C 74.984375 667.757812 75.355469 668.609375 75.789062 669.4375 C 76.21875 670.265625 76.707031 671.058594 77.25 671.816406 C 77.792969 672.574219 78.386719 673.289062 79.03125 673.964844 C 79.675781 674.640625 80.363281 675.265625 81.097656 675.84375 C 81.828125 676.417969 82.597656 676.941406 83.40625 677.410156 C 92.546875 683.664062 111.007812 689.636719 146 693.109375 C 169.015625 695.222656 191.8125 698.753906 214.386719 703.710938 C 235.085938 708.550781 252.523438 714.683594 263.777344 723.078125 C 265.566406 724.207031 267.199219 725.53125 268.671875 727.050781 C 270.148438 728.570312 271.421875 730.242188 272.496094 732.0625 C 273.570312 733.886719 274.417969 735.808594 275.035156 737.832031 C 275.648438 739.855469 276.019531 741.925781 276.144531 744.035156 C 276.066406 748.195312 275.050781 752.109375 273.097656 755.78125 C 268.121094 765.46875 257.277344 774.5625 242.699219 783.445312 C 225.78125 793.300781 208.082031 801.460938 189.597656 807.925781 C 149.300781 822.503906 102.039062 832.746094 64.347656 832.785156 C 43.179688 832.816406 29.363281 826.707031 21.125 817.203125 C 19.289062 814.878906 17.675781 812.414062 16.28125 809.800781 C 14.890625 807.191406 13.742188 804.472656 12.835938 801.65625 C 11.933594 798.835938 11.289062 795.960938 10.902344 793.027344 C 10.515625 790.09375 10.398438 787.148438 10.542969 784.191406 C 10.65625 776.074219 11.621094 768.0625 13.445312 760.15625 C 13.769531 758.691406 14.097656 757.292969 14.410156 755.992188 C 13.136719 757.578125 11.964844 759.234375 10.890625 760.960938 C 7.945312 766.355469 5.664062 772.019531 4.046875 777.949219 C 2.429688 783.882812 1.519531 789.917969 1.324219 796.0625 C 1.226562 799.695312 1.523438 803.296875 2.210938 806.863281 C 2.898438 810.433594 3.964844 813.886719 5.402344 817.226562 C 6.839844 820.5625 8.621094 823.710938 10.742188 826.660156 C 12.867188 829.613281 15.28125 832.300781 17.988281 834.730469 C 29.777344 846.273438 50.691406 851.5625 75.550781 851.515625 C 125.65625 851.554688 191.621094 830.917969 221.242188 820.582031 C 231.136719 817.140625 236.964844 814.871094 236.976562 814.871094 C 236.988281 814.871094 237.890625 814.507812 239.601562 813.765625 C 241.316406 813.027344 243.769531 811.859375 246.734375 810.335938 C 254.34375 806.433594 261.5625 801.910156 268.394531 796.769531 C 284.171875 784.777344 299.34375 767.359375 299.273438 745.3125 C 299.246094 739.988281 298.445312 734.785156 296.871094 729.703125 C 291.894531 712.609375 271.261719 699.550781 246.695312 690.742188 C 223.707031 682.953125 200.171875 677.585938 176.078125 674.644531 C 163.875 673.035156 155.984375 672.5 155.898438 672.488281 C 143.609375 671.382812 131.539062 669.101562 119.691406 665.644531 C 114.996094 664.332031 110.800781 662.089844 107.09375 658.921875 C 106.132812 658.035156 105.378906 656.996094 104.832031 655.800781 C 104.289062 654.609375 104 653.359375 103.960938 652.050781 C 104.019531 649.824219 104.726562 647.828125 106.089844 646.0625 C 117.199219 631.019531 150.589844 610.707031 228.472656 585.148438 C 289.335938 565.261719 360.015625 535.0625 393.117188 520.375 L 399.667969 517.453125 " fill-opacity="1" fill-rule="nonzero"/></g></svg>
